<?xml version="1.0" encoding="iso-8859-1"?>
<!-- Generator: Adobe Illustrator 19.0.0, SVG Export Plug-In . SVG Version: 6.00 Build 0)  -->
<svg version="1.1" id="Layer_1" xmlns="http://www.w3.org/2000/svg" xmlns:xlink="http://www.w3.org/1999/xlink" x="0px" y="0px"
	 viewBox="0 0 512 512" style="enable-background:new 0 0 512 512;" xml:space="preserve">
<path style="fill:#E4EAF8;" d="M367.171,427.026H25.119c-9.446,0-17.103-7.657-17.103-17.103V119.179
	c0-9.446,7.657-17.103,17.103-17.103h342.052c9.446,0,17.103,7.657,17.103,17.103v290.744
	C384.274,419.369,376.616,427.026,367.171,427.026z"/>
<path style="fill:#D5DCED;" d="M367.171,102.077H42.222v34.205h342.052v-17.103C384.274,109.735,376.616,102.077,367.171,102.077z"
	/>
<rect x="315.863" y="102.081" style="fill:#FFF082;" width="34.205" height="34.205"/>
<rect x="281.658" y="102.081" style="fill:#FF5050;" width="34.205" height="34.205"/>
<path style="fill:#A0FFB4;" d="M384.274,136.282h-34.205v-34.205h17.103c9.446,0,17.103,7.657,17.103,17.103V136.282z"/>
<path style="fill:#D5DCED;" d="M384.274,212.634L260.889,336.018l-21.927,46.986c-2.717,5.823,3.322,11.864,9.146,9.146
	l46.986-21.928l89.179-89.179V212.634z"/>
<path style="fill:#5B5D6E;" d="M213.248,375.718l58.674-27.381c3.613-1.686,6.903-3.99,9.722-6.809l219.843-219.843
	c3.339-3.339,3.339-8.754,0-12.094l-22.112-22.113c-3.339-3.339-8.753-3.339-12.094,0L247.438,307.322
	c-2.819,2.819-5.123,6.109-6.809,9.722L213.248,375.718z"/>
<polygon style="fill:#464655;" points="464.778,124.188 213.248,375.718 277.382,345.789 481.88,141.291 "/>
<g>
	<polygon style="fill:#7F8499;" points="281.658,341.513 247.453,307.308 243.177,311.583 213.248,375.717 277.382,345.789 	"/>
	<path style="fill:#7F8499;" d="M479.375,87.48c-3.34-3.34-8.753-3.34-12.094,0l-19.607,19.607l34.205,34.205l19.607-19.607
		c3.34-3.34,3.34-8.754,0-12.094L479.375,87.48z"/>
</g>
<g>
	<path style="fill:#707487;" d="M501.486,109.591L490.43,98.536l-25.654,25.654l17.103,17.103l19.607-19.607
		C504.827,118.345,504.827,112.931,501.486,109.591z"/>
	<polygon style="fill:#707487;" points="277.382,345.789 281.658,341.513 264.556,324.41 213.25,375.717 	"/>
</g>
<path d="M507.156,103.923L485.044,81.81c-3.13-3.13-7.29-4.853-11.715-4.853s-8.587,1.723-11.715,4.853l-19.605,19.605
	c-0.001,0-0.002,0.001-0.002,0.002c-0.001,0.001-0.001,0.002-0.002,0.003l-49.714,49.713v-31.954
	c0-13.851-11.268-25.119-25.119-25.119H25.119C11.268,94.06,0,105.329,0,119.179v290.744c0,13.851,11.268,25.119,25.119,25.119
	h342.052c13.851,0,25.119-11.268,25.119-25.119V242.219l114.865-114.865C513.615,120.893,513.615,110.382,507.156,103.923z
	 M281.658,330.176l-22.867-22.868l188.884-188.884l22.867,22.868L281.658,330.176z M248.323,319.516l21.128,21.128l-39.615,18.487
	L248.323,319.516z M376.257,119.179v9.086h-18.171v-18.171h9.086C372.181,110.094,376.257,114.169,376.257,119.179z M323.88,128.265
	v-18.171h18.172v18.171H323.88z M289.675,128.265v-18.171h18.172v18.171H289.675z M50.239,128.265v-18.171h223.402v18.171H50.239z
	 M25.119,110.094h9.086v18.171H16.034v-9.086C16.034,114.169,20.109,110.094,25.119,110.094z M376.257,409.923
	c0,5.01-4.076,9.086-9.086,9.086H25.119c-5.01,0-9.086-4.076-9.086-9.086V144.299h360.223v22.868L237.509,305.915
	c-0.661,0.661-1.201,1.431-1.596,2.278l-29.93,64.135c-1.425,3.055-0.788,6.675,1.596,9.059c1.537,1.537,3.588,2.348,5.671,2.348
	c1.147,0,2.304-0.246,3.387-0.753l64.135-29.93c0.847-0.396,1.618-0.935,2.279-1.596l93.206-93.205V409.923z M495.819,116.015
	l-13.939,13.939l-22.867-22.868l13.939-13.939c0.038-0.038,0.156-0.156,0.377-0.156s0.339,0.118,0.378,0.156l22.112,22.111
	C496.026,115.467,496.026,115.807,495.819,116.015z"/>
<path d="M187.594,179.573h-8.672c-0.016,0-0.032,0-0.047,0h-8.383c-4.427,0-8.017,3.589-8.017,8.017
	c0,3.348,2.053,6.214,4.968,7.414l-22.605,56.513l-22.364-55.91h5.261c4.427,0,8.017-3.589,8.017-8.017s-3.589-8.017-8.017-8.017
	h-17.103c-2.661,0-5.147,1.319-6.638,3.522c-1.492,2.204-1.793,5.003-0.805,7.472l7.361,18.401l-17.02,42.549l-22.364-55.91h5.261
	c4.427,0,8.017-3.589,8.017-8.017s-3.589-8.017-8.017-8.017H59.325c-2.661,0-5.147,1.319-6.638,3.522
	c-1.492,2.204-1.793,5.003-0.805,7.472l34.205,85.513c1.217,3.044,4.164,5.04,7.443,5.04s6.226-1.996,7.443-5.04l18.211-45.526
	l18.211,45.526c1.217,3.044,4.164,5.04,7.443,5.04s6.226-1.996,7.443-5.04l32.189-80.473h3.123c4.427,0,8.017-3.589,8.017-8.017
	S192.021,179.573,187.594,179.573z"/>
<path d="M179.043,316.394H59.325c-4.427,0-8.017,3.589-8.017,8.017s3.589,8.017,8.017,8.017h119.718
	c4.427,0,8.017-3.589,8.017-8.017S183.47,316.394,179.043,316.394z"/>
<path d="M230.35,195.607h85.513c4.427,0,8.017-3.589,8.017-8.017s-3.589-8.017-8.017-8.017H230.35c-4.427,0-8.017,3.589-8.017,8.017
	S225.923,195.607,230.35,195.607z"/>
<path d="M230.35,229.812h51.308c4.427,0,8.017-3.589,8.017-8.017s-3.589-8.017-8.017-8.017H230.35c-4.427,0-8.017,3.589-8.017,8.017
	S225.923,229.812,230.35,229.812z"/>
<path d="M144.837,350.599H59.325c-4.427,0-8.017,3.589-8.017,8.017s3.589,8.017,8.017,8.017h85.513c4.427,0,8.017-3.589,8.017-8.017
	S149.265,350.599,144.837,350.599z"/>
<g>
</g>
<g>
</g>
<g>
</g>
<g>
</g>
<g>
</g>
<g>
</g>
<g>
</g>
<g>
</g>
<g>
</g>
<g>
</g>
<g>
</g>
<g>
</g>
<g>
</g>
<g>
</g>
<g>
</g>
</svg>
